<?xml version="1.0" encoding="utf-8"?>
<!-- Generator: Adobe Illustrator 25.0.0, SVG Export Plug-In . SVG Version: 6.00 Build 0)  -->
<svg version="1.1" id="レイヤー_1" xmlns="http://www.w3.org/2000/svg" xmlns:xlink="http://www.w3.org/1999/xlink" x="0px"
	 y="0px" viewBox="0 0 407 45" style="enable-background:new 0 0 407 45;" xml:space="preserve">
<style type="text/css">
	.st0{fill:#FFFFFF;}
</style>
<g>
	<g>
		<path class="st0" d="M236,18.4c1.2,0.2,2.3,0.5,3.4,0.7l3.3,1.2l6.5,2.3l6.5,2.3L259,26c1,0.5,2.1,1,3.1,1.6
			c-1.2-0.2-2.3-0.5-3.4-0.7l-3.3-1.2l-6.5-2.3l-6.5-2.3l-3.3-1.2C238.1,19.5,237,18.9,236,18.4z"/>
	</g>
	<g>
		<path class="st0" d="M243.1,10.5c0.7,1,1.3,1.9,1.9,2.9l1.5,3.1l3,6.3l3,6.3l1.5,3.1c0.3,1.1,0.7,2.2,1,3.3
			c-0.7-1-1.3-1.9-1.9-2.9l-1.5-3.1l-3-6.3l-3-6.3l-1.5-3.1C243.8,12.7,243.4,11.6,243.1,10.5z"/>
	</g>
	<g>
		<path class="st0" d="M253.7,9.9c-0.2,1.2-0.5,2.3-0.7,3.4l-1.2,3.3l-2.3,6.5l-2.3,6.5l-1.2,3.3c-0.5,1-1,2.1-1.6,3.1
			c0.2-1.2,0.5-2.3,0.7-3.4l1.2-3.3l2.3-6.5l2.3-6.5l1.2-3.3C252.6,12,253.1,11,253.7,9.9z"/>
	</g>
	<g>
		<path class="st0" d="M261.6,17c-1,0.7-1.9,1.3-2.9,1.9l-3.1,1.5l-6.3,3l-6.3,3l-3.1,1.5c-1.1,0.3-2.2,0.7-3.3,1
			c1-0.7,1.9-1.3,2.9-1.9l3.1-1.5l6.3-3l6.3-3l3.1-1.5C259.4,17.7,260.5,17.3,261.6,17z"/>
	</g>
</g>
<g>
	<g>
		<path class="st0" d="M315.9,18.4c1.2,0.2,2.3,0.5,3.4,0.7l3.3,1.2l6.5,2.3l6.5,2.3l3.3,1.2c1,0.5,2.1,1,3.1,1.6
			c-1.2-0.2-2.3-0.5-3.4-0.7l-3.3-1.2l-6.5-2.3l-6.5-2.3L319,20C317.9,19.5,316.9,18.9,315.9,18.4z"/>
	</g>
	<g>
		<path class="st0" d="M323,10.5c0.7,1,1.3,1.9,1.9,2.9l1.5,3.1l3,6.3l3,6.3l1.5,3.1c0.3,1.1,0.7,2.2,1,3.3c-0.7-1-1.3-1.9-1.9-2.9
			l-1.5-3.1l-3-6.3l-3-6.3l-1.5-3.1C323.7,12.7,323.3,11.6,323,10.5z"/>
	</g>
	<g>
		<path class="st0" d="M333.6,9.9c-0.2,1.2-0.5,2.3-0.7,3.4l-1.2,3.3l-2.3,6.5l-2.3,6.5l-1.2,3.3c-0.5,1-1,2.1-1.6,3.1
			c0.2-1.2,0.5-2.3,0.7-3.4l1.2-3.3l2.3-6.5l2.3-6.5l1.2-3.3C332.5,12,333,11,333.6,9.9z"/>
	</g>
	<g>
		<path class="st0" d="M341.4,17c-1,0.7-1.9,1.3-2.9,1.9l-3.1,1.5l-6.3,3l-6.3,3l-3.1,1.5c-1.1,0.3-2.2,0.7-3.3,1
			c1-0.7,1.9-1.3,2.9-1.9l3.1-1.5l6.3-3l6.3-3l3.1-1.5C339.2,17.7,340.3,17.3,341.4,17z"/>
	</g>
</g>
<g>
	<path class="st0" d="M21,27.6l11.3,15.8h-9.9l-8.9-13c-1.9,0.3-3.4,0.4-5.5,0.2v12.8h-8.1V1.7c17.9-3.5,27.6,3,27.6,13.7
		C27.5,20.1,25,25.1,21,27.6z M8,23.3c7.2,1,11.2-2.9,11.2-7.8c0-4.6-3.7-8.3-11.2-7.1V23.3z"/>
	<path class="st0" d="M61.7,36.6v6.8h-25V1.3H61v6.8H44.8v8.5h13.1v6.8H44.8v13.1H61.7z"/>
	<path class="st0" d="M101.3,1.3v42.1h-8v-17L77.2,15.5v27.9h-7.9V1.3l1.1-0.4l23,16V1.3H101.3z"/>
	<path class="st0" d="M136.4,8.2h-10.5v35.3h-8.1V8.2h-10.5V1.3h29.1V8.2z"/>
	<path class="st0" d="M137.9,43.4l20-42.5h1.4l19.8,42.5h-8.9l-3.1-6.8h-17l-3.1,6.8H137.9z M152.8,29.9h11.3l-5.6-13.1L152.8,29.9z
		"/>
	<path class="st0" d="M207.6,43.4h-24.1V1.3h8.1v35.3h16V43.4z"/>
	<path class="st0" d="M264.4,38.5c-3.4,2.8-7.7,5.8-16.4,5.8c-12.5,0-21.5-9.9-21.5-21.8c0-13.1,9.8-22,21.8-22
		c7.6,0,12.2,3.1,15.6,5.8l-1.5,1.9c-3.7-3.4-8.8-5.5-14.1-5.5c-10.3,0-18.8,8.5-18.8,19.7c0,10.9,8.5,19.6,18.8,19.6
		c5.3,0,10.9-2.2,14.6-5.3L264.4,38.5z"/>
	<path class="st0" d="M304.1,1.3l-14.5,23.1v19h-8.2v-19L266.9,1.3h9.5l9.2,14.5l9.2-14.5H304.1z"/>
	<path class="st0" d="M344.6,38.5c-3.4,2.8-7.7,5.8-16.4,5.8c-12.5,0-21.5-9.9-21.5-21.8c0-13.1,9.8-22,21.8-22
		c7.6,0,12.2,3.1,15.6,5.8l-1.5,1.9c-3.7-3.4-8.8-5.5-14.1-5.5c-10.3,0-18.8,8.5-18.8,19.7c0,10.9,8.5,19.6,18.8,19.6
		c5.3,0,10.9-2.2,14.6-5.3L344.6,38.5z"/>
	<path class="st0" d="M375.5,43.4h-24.1V1.3h8.1v35.3h16V43.4z"/>
	<path class="st0" d="M406.7,36.6v6.8h-25V1.3h24.3v6.8h-16.2v8.5H403v6.8h-13.1v13.1H406.7z"/>
</g>
</svg>
