<?xml version="1.0" encoding="utf-8"?>
<!-- Generator: Adobe Illustrator 25.0.0, SVG Export Plug-In . SVG Version: 6.00 Build 0)  -->
<svg version="1.1" id="レイヤー_1" xmlns="http://www.w3.org/2000/svg" xmlns:xlink="http://www.w3.org/1999/xlink" x="0px"
	 y="0px" viewBox="0 0 1566 616.1" style="enable-background:new 0 0 1566 616.1;" xml:space="preserve">
<style type="text/css">
	.st0{fill:#FFFFFF;}
</style>
<polygon class="st0" points="45.6,0 0,121.8 0,0 "/>
<polygon class="st0" points="145.6,0 0,389 0,239.9 89.8,0 "/>
<polygon class="st0" points="245.6,0 15,616.1 0,616.1 0,507.2 189.8,0 "/>
<polygon class="st0" points="345.6,0 115,616.1 59.2,616.1 289.8,0 "/>
<polygon class="st0" points="445.6,0 215,616.1 159.2,616.1 389.8,0 "/>
<polygon class="st0" points="545.6,0 315,616.1 259.2,616.1 489.8,0 "/>
<polygon class="st0" points="645.6,0 415,616.1 359.2,616.1 589.8,0 "/>
<polygon class="st0" points="745.6,0 515,616.1 459.2,616.1 689.8,0 "/>
<polygon class="st0" points="845.6,0 615,616.1 559.2,616.1 789.8,0 "/>
<polygon class="st0" points="945.6,0 715,616.1 659.2,616.1 889.8,0 "/>
<polygon class="st0" points="1045.6,0 815,616.1 759.2,616.1 989.8,0 "/>
<polygon class="st0" points="1145.6,0 915,616.1 859.2,616.1 1089.8,0 "/>
<polygon class="st0" points="1245.6,0 1015,616.1 959.2,616.1 1189.8,0 "/>
<polygon class="st0" points="1345.6,0 1115,616.1 1059.2,616.1 1289.8,0 "/>
<polygon class="st0" points="1445.6,0 1215,616.1 1159.2,616.1 1389.8,0 "/>
<polygon class="st0" points="1545.6,0 1315,616.1 1259.2,616.1 1489.8,0 "/>
<polygon class="st0" points="1566,63.6 1566,212.6 1415,616.1 1359.2,616.1 "/>
<polygon class="st0" points="1459.2,616.1 1566,330.8 1566,479.8 1515,616.1 "/>
<polygon class="st0" points="1559.2,616.1 1566,598 1566,616.1 "/>
</svg>
